<svg width="54" height="20" viewBox="0 0 54 20" fill="none" xmlns="http://www.w3.org/2000/svg" xmlns:xlink="http://www.w3.org/1999/xlink">
<path d="M49.833,18.833C51.49,18.833 52.833,17.49 52.833,15.833C52.833,14.176 51.49,12.833 49.833,12.833L49.833,18.833ZM36.833,5.833C38.49,5.833 39.833,4.49 39.833,2.833C39.833,1.176 38.49,-0.167 36.833,-0.167L36.833,5.833ZM49.833,12.833L7.716,12.833L7.716,18.833L49.833,18.833L49.833,12.833ZM6.768,11.517L7.523,9.252L1.831,7.355L1.076,9.62L6.768,11.517ZM12.266,5.833L36.833,5.833L36.833,-0.167L12.266,-0.167L12.266,5.833ZM7.523,9.252C7.985,7.867 8.256,7.068 8.518,6.504C8.636,6.25 8.717,6.125 8.761,6.066C8.781,6.039 8.792,6.028 8.795,6.025C8.797,6.023 8.797,6.023 8.798,6.022L5.29,1.155C4.198,1.941 3.55,2.958 3.078,3.974C2.638,4.919 2.249,6.1 1.831,7.355L7.523,9.252ZM12.266,-0.167C10.944,-0.167 9.7,-0.171 8.664,-0.053C7.552,0.074 6.382,0.368 5.29,1.155L8.798,6.022C8.8,6.021 8.8,6.021 8.803,6.019C8.806,6.018 8.82,6.011 8.852,6C8.921,5.977 9.066,5.94 9.345,5.908C9.962,5.838 10.806,5.833 12.266,5.833L12.266,-0.167ZM7.716,12.833C7.071,12.833 6.561,12.833 6.126,12.821C5.686,12.81 5.409,12.788 5.228,12.761C5.044,12.734 5.076,12.718 5.205,12.78C5.373,12.861 5.586,13.017 5.753,13.249L0.885,16.757C1.877,18.133 3.31,18.544 4.357,18.698C5.334,18.841 6.547,18.833 7.716,18.833L7.716,12.833ZM1.076,9.62C0.706,10.729 0.315,11.877 0.142,12.849C-0.043,13.891 -0.106,15.381 0.885,16.757L5.753,13.249C5.92,13.481 6,13.731 6.024,13.917C6.042,14.059 6.017,14.084 6.049,13.901C6.081,13.721 6.148,13.451 6.276,13.03C6.403,12.613 6.564,12.129 6.768,11.517L1.076,9.62Z" fill="#643643"/>
</svg>
