<svg width="98" height="92" viewBox="0 0 98 92" fill="none" xmlns="http://www.w3.org/2000/svg" xmlns:xlink="http://www.w3.org/1999/xlink">
<path d="M68.136,42.167C68.136,54.612 57.537,65 44.083,65L44.083,73C61.616,73 76.136,59.361 76.136,42.167L68.136,42.167ZM44.083,65C30.63,65 20.03,54.612 20.03,42.167L12.03,42.167C12.03,59.361 26.55,73 44.083,73L44.083,65ZM20.03,42.167C20.03,29.722 30.63,19.333 44.083,19.333L44.083,11.333C26.55,11.333 12.03,24.972 12.03,42.167L20.03,42.167ZM44.083,19.333C57.537,19.333 68.136,29.722 68.136,42.167L76.136,42.167C76.136,24.972 61.616,11.333 44.083,11.333L44.083,19.333Z" fill="#643643"/>
<path d="M77.387,79.557C78.983,81.084 81.515,81.028 83.042,79.432C84.569,77.835 84.513,75.303 82.917,73.776L77.387,79.557ZM70.894,62.276C69.297,60.749 66.765,60.805 65.238,62.402C63.711,63.998 63.768,66.53 65.364,68.057L70.894,62.276ZM82.917,73.776L70.894,62.276L65.364,68.057L77.387,79.557L82.917,73.776Z" fill="#643643"/>
</svg>
