<svg width="92" height="92" viewBox="0 0 92 92" fill="none" xmlns="http://www.w3.org/2000/svg" xmlns:xlink="http://www.w3.org/1999/xlink">
<path d="M46,55.571C56.73,55.571 65.428,46.873 65.428,36.143L59.428,36.143C59.428,43.559 53.416,49.571 46,49.571L46,55.571ZM65.428,36.143C65.428,25.413 56.73,16.714 46,16.714L46,22.714C53.416,22.714 59.428,28.726 59.428,36.143L65.428,36.143ZM46,16.714C35.27,16.714 26.571,25.413 26.571,36.143L32.571,36.143C32.571,28.726 38.583,22.714 46,22.714L46,16.714ZM26.571,36.143C26.571,46.873 35.27,55.571 46,55.571L46,49.571C38.583,49.571 32.571,43.559 32.571,36.143L26.571,36.143Z" fill="#643643"/>
<path d="M15.378,76.639C14.516,78.054 14.964,79.9 16.379,80.762C17.794,81.624 19.64,81.176 20.502,79.761L15.378,76.639ZM29.908,66.648L31.377,69.264L31.377,69.264L29.908,66.648ZM62.092,66.648L60.622,69.264L60.623,69.264L62.092,66.648ZM71.498,79.761C72.36,81.176 74.206,81.624 75.621,80.762C77.036,79.9 77.484,78.054 76.622,76.639L71.498,79.761ZM20.502,79.761C23.166,75.387 26.911,71.772 31.377,69.264L28.439,64.032C23.076,67.045 18.578,71.386 15.378,76.639L20.502,79.761ZM31.377,69.264C35.842,66.755 40.878,65.437 46,65.437L46,59.437C39.849,59.437 33.801,61.02 28.438,64.033L31.377,69.264ZM46,65.437C51.121,65.437 56.157,66.755 60.622,69.264L63.561,64.033C58.198,61.02 52.151,59.437 46,59.437L46,65.437ZM60.623,69.264C65.088,71.772 68.833,75.387 71.498,79.761L76.622,76.639C73.421,71.386 68.924,67.045 63.561,64.032L60.623,69.264Z" fill="#643643"/>
<path d="M46,91.714C71.248,91.714 91.714,71.248 91.714,46L85.714,46C85.714,67.934 67.934,85.714 46,85.714L46,91.714ZM91.714,46C91.714,20.753 71.248,0.286 46,0.286L46,6.286C67.934,6.286 85.714,24.066 85.714,46L91.714,46ZM46,0.286C20.753,0.286 0.286,20.753 0.286,46L6.286,46C6.286,24.066 24.066,6.286 46,6.286L46,0.286ZM0.286,46C0.286,71.248 20.753,91.714 46,91.714L46,85.714C24.066,85.714 6.286,67.934 6.286,46L0.286,46Z" fill="#643643"/>
</svg>
