<svg width="68" height="36" viewBox="0 0 68 36" fill="none" xmlns="http://www.w3.org/2000/svg" xmlns:xlink="http://www.w3.org/1999/xlink">
<path d="M64.258,3.994L66.853,2.488L64.258,3.994ZM49.186,32.293L47.681,29.698L49.186,32.293ZM15.269,32.173L13.617,34.677L15.269,32.173ZM20.108,35.833L44.857,35.833L44.857,29.833L20.108,29.833L20.108,35.833ZM15.513,26.803L8.175,9.682L2.66,12.045L9.998,29.166L15.513,26.803ZM10.932,5.5L56.494,5.5L56.494,-0.5L10.932,-0.5L10.932,5.5ZM59.099,9.988L49.199,27.314L54.408,30.291L64.308,12.965L59.099,9.988ZM56.494,5.5C58.894,5.5 60.35,5.508 61.335,5.654C62.291,5.796 61.925,5.95 61.664,5.5L66.853,2.488C65.725,0.544 63.775,-0.049 62.216,-0.281C60.685,-0.508 58.692,-0.5 56.494,-0.5L56.494,5.5ZM64.308,12.965C65.399,11.057 66.395,9.33 66.957,7.888C67.529,6.42 67.982,4.433 66.853,2.488L61.664,5.5C61.402,5.05 61.718,4.808 61.367,5.709C61.005,6.637 60.29,7.904 59.099,9.988L64.308,12.965ZM8.175,9.682C7.326,7.702 6.832,6.527 6.608,5.68C6.399,4.888 6.634,5.119 6.383,5.5L1.374,2.197C0.233,3.926 0.428,5.776 0.807,7.21C1.17,8.589 1.89,10.248 2.66,12.045L8.175,9.682ZM10.932,-0.5C8.977,-0.5 7.169,-0.508 5.758,-0.299C4.291,-0.082 2.514,0.468 1.374,2.197L6.383,5.5C6.132,5.881 5.827,5.756 6.637,5.636C7.504,5.508 8.778,5.5 10.932,5.5L10.932,-0.5ZM44.857,35.833C45.931,35.833 46.953,35.837 47.817,35.751C48.748,35.659 49.726,35.448 50.692,34.888L47.681,29.698C47.68,29.699 47.679,29.699 47.675,29.701C47.671,29.702 47.657,29.708 47.63,29.716C47.571,29.732 47.451,29.758 47.227,29.78C46.726,29.83 46.048,29.833 44.857,29.833L44.857,35.833ZM49.199,27.314C48.607,28.348 48.269,28.934 47.977,29.345C47.846,29.529 47.764,29.62 47.721,29.663C47.7,29.683 47.689,29.692 47.685,29.695C47.682,29.697 47.681,29.698 47.681,29.698L50.692,34.888C51.658,34.327 52.327,33.582 52.868,32.82C53.371,32.112 53.875,31.223 54.408,30.291L49.199,27.314ZM20.108,29.833C18.764,29.833 17.994,29.829 17.427,29.768C17.172,29.741 17.038,29.708 16.973,29.688C16.943,29.679 16.929,29.673 16.925,29.671C16.922,29.669 16.922,29.669 16.92,29.668L13.617,34.677C14.659,35.364 15.748,35.622 16.783,35.733C17.746,35.837 18.894,35.833 20.108,35.833L20.108,29.833ZM9.998,29.166C10.476,30.283 10.925,31.34 11.4,32.184C11.91,33.091 12.576,33.99 13.617,34.677L16.92,29.668C16.919,29.667 16.918,29.667 16.916,29.665C16.913,29.662 16.902,29.652 16.881,29.627C16.837,29.576 16.755,29.465 16.629,29.242C16.349,28.745 16.042,28.038 15.513,26.803L9.998,29.166Z" fill="#643643"/>
</svg>
