<svg width="92" height="78" viewBox="0 0 92 78" fill="none" xmlns="http://www.w3.org/2000/svg" xmlns:xlink="http://www.w3.org/1999/xlink">
<path d="M46.027,73.371L44.013,75.595C45.156,76.63 46.898,76.63 48.041,75.595L46.027,73.371ZM10.052,40.786L7.931,42.907C7.966,42.942 8.002,42.976 8.038,43.01L10.052,40.786ZM46.027,14.066L43.777,16.05C44.346,16.696 45.166,17.066 46.027,17.066C46.888,17.066 47.707,16.696 48.277,16.05L46.027,14.066ZM82.002,40.786L84.016,43.01C84.052,42.976 84.088,42.942 84.123,42.907L82.002,40.786ZM48.041,71.148L12.066,38.563L8.038,43.01L44.013,75.595L48.041,71.148ZM12.174,38.665C3.809,30.3 5.614,17.947 12.777,10.834C16.29,7.346 20.96,5.296 26.14,5.671C31.319,6.047 37.457,8.884 43.777,16.05L48.277,12.082C41.204,4.063 33.705,0.204 26.573,-0.313C19.441,-0.83 13.126,2.032 8.55,6.577C-0.466,15.529 -3.256,31.721 7.931,42.907L12.174,38.665ZM48.277,16.05C54.597,8.884 60.725,6.056 65.891,5.69C71.057,5.324 75.716,7.382 79.224,10.879C86.383,18.016 88.174,30.371 79.88,38.665L84.123,42.907C95.25,31.78 92.447,15.59 83.46,6.63C78.894,2.078 72.592,-0.8 65.467,-0.295C58.342,0.21 50.849,4.063 43.777,12.082L48.277,16.05ZM79.988,38.563L44.013,71.148L48.041,75.595L84.016,43.01L79.988,38.563Z" fill="#643643"/>
</svg>
