<svg width="24" height="20" viewBox="0 0 24 20" fill="none" xmlns="http://www.w3.org/2000/svg" xmlns:xlink="http://www.w3.org/1999/xlink">
<path d="M3.167,0.5C1.51,0.5 0.167,1.843 0.167,3.5C0.167,5.157 1.51,6.5 3.167,6.5L3.167,0.5ZM17.654,17.449C18.178,19.021 19.877,19.87 21.449,19.346C23.021,18.822 23.87,17.123 23.346,15.551L17.654,17.449ZM3.167,6.5L13.284,6.5L13.284,0.5L3.167,0.5L3.167,6.5ZM14.232,7.184L17.654,17.449L23.346,15.551L19.924,5.286L14.232,7.184ZM13.284,6.5C13.641,6.5 13.91,6.5 14.139,6.505C14.369,6.51 14.499,6.519 14.574,6.528C14.646,6.536 14.611,6.538 14.52,6.508C14.414,6.473 14.277,6.41 14.141,6.311L17.649,1.444C16.819,0.846 15.954,0.646 15.255,0.567C14.632,0.495 13.91,0.5 13.284,0.5L13.284,6.5ZM19.924,5.286C19.726,4.692 19.502,4.006 19.238,3.437C18.941,2.799 18.479,2.042 17.649,1.444L14.141,6.311C14.004,6.213 13.901,6.103 13.834,6.013C13.776,5.936 13.767,5.903 13.798,5.968C13.83,6.037 13.88,6.158 13.957,6.374C14.034,6.59 14.119,6.845 14.232,7.184L19.924,5.286Z" fill="#643643"/>
</svg>
